<?xml version="1.0" encoding="iso-8859-1"?>
<!-- Generator: Adobe Illustrator 19.0.0, SVG Export Plug-In . SVG Version: 6.00 Build 0)  -->
<svg version="1.1" id="Layer_1" xmlns="http://www.w3.org/2000/svg" xmlns:xlink="http://www.w3.org/1999/xlink" x="0px" y="0px"
	 viewBox="0 0 400.549 400.549" style="enable-background:new 0 0 400.549 400.549;" xml:space="preserve">
<circle style="fill:#E1E6E9;" cx="201.503" cy="200.275" r="194.715"/>
<g>
	<rect x="292.978" y="194.069" style="fill:#193651;" width="12.347" height="12.347"/>
	<rect x="97.034" y="194.069" style="fill:#193651;" width="12.347" height="12.347"/>
	<rect x="195.362" y="291.75" style="fill:#193651;" width="12.347" height="12.347"/>
	<rect x="195.362" y="96.388" style="fill:#193651;" width="12.347" height="12.347"/>
</g>
<circle style="fill:#FFFFFF;" cx="201.503" cy="200.275" r="44.541"/>
<path style="fill:#193651;" d="M201.503,250.958c-27.798,0-50.683-22.885-50.683-50.683s22.885-50.683,50.683-50.683
	s50.683,22.885,50.683,50.683S229.301,250.958,201.503,250.958z M201.503,161.939c-21.01,0-38.335,17.325-38.335,38.335
	s17.325,38.335,38.335,38.335s38.335-17.325,38.335-38.335S222.513,161.939,201.503,161.939z"/>
<circle style="fill:#2EA2DB;" cx="201.503" cy="33.358" r="24.76"/>
<path style="fill:#193651;" d="M201.503,64.259c-17.325,0-30.901-13.576-30.901-30.901s13.576-30.901,30.901-30.901
	s30.901,13.576,30.901,30.901S218.182,64.259,201.503,64.259z M201.503,14.804c-10.537,0-18.554,8.663-18.554,18.554
	c0,10.537,8.663,18.554,18.554,18.554c10.537,0,18.554-8.663,18.554-18.554S211.394,14.804,201.503,14.804z"/>
<circle style="fill:#4FBF9F;" cx="201.503" cy="367.192" r="24.76"/>
<path style="fill:#193651;" d="M201.503,398.093c-17.325,0-30.901-13.576-30.901-30.901c0-17.325,13.576-30.901,30.901-30.901
	s30.901,13.576,30.901,30.901C232.404,384.517,218.182,398.093,201.503,398.093z M201.503,348.638
	c-10.537,0-18.554,8.663-18.554,18.554c0,10.537,8.663,18.554,18.554,18.554c10.537,0,18.554-8.663,18.554-18.554
	C220.057,356.655,211.394,348.638,201.503,348.638z"/>
<circle style="fill:#FDBF5E;" cx="368.42" cy="200.275" r="24.76"/>
<path style="fill:#193651;" d="M368.42,231.176c-17.325,0-30.901-13.576-30.901-30.901s13.576-30.901,30.901-30.901
	c17.325,0,30.901,13.576,30.901,30.901S385.099,231.176,368.42,231.176z M368.42,181.721c-10.537,0-18.554,8.663-18.554,18.554
	c0,9.891,8.663,18.554,18.554,18.554c10.537,0,18.554-8.663,18.554-18.554C386.974,189.737,378.311,181.721,368.42,181.721z"/>
<circle style="fill:#F16051;" cx="34.586" cy="200.275" r="24.76"/>
<path style="fill:#193651;" d="M34.586,231.176L34.586,231.176c-17.325,0-30.901-13.576-30.901-30.901s13.576-30.901,30.901-30.901
	s30.901,13.576,30.901,30.901S51.265,231.176,34.586,231.176z M34.586,181.721c-10.473,0-18.554,8.663-18.554,18.554
	s8.663,18.554,18.554,18.554c10.537,0,18.554-8.663,18.554-18.554C53.139,189.737,44.477,181.721,34.586,181.721z"/>
<polygon style="fill:#FFFFFF;" points="278.174,63.03 278.174,123.604 338.101,123.604 325.172,110.028 390.659,44.477 
	357.301,10.473 291.168,76.671 "/>
<path style="fill:#193651;" d="M352.97,129.81h-81.002V48.226l19.135,19.135L357.301,1.81l42.667,42.667l-66.198,65.552
	L352.97,129.81z M284.315,117.463h38.917l-6.788-6.788l65.552-66.198l-24.76-24.76l-66.069,65.552l-6.788-6.788L284.315,117.463
	L284.315,117.463z"/>
<polygon style="fill:#FFFFFF;" points="62.448,121.147 122.376,121.147 122.376,61.156 109.382,74.149 43.248,8.663 9.891,42.667 
	75.378,108.154 "/>
<path style="fill:#193651;" d="M47.58,127.354l19.135-19.135L0.582,42.667L43.248,0L108.8,65.552l19.135-19.135v81.002H47.58
	V127.354z M18.554,42.667l65.552,65.552l-6.853,6.723h38.982V76.024l-6.788,6.788L43.248,17.325L18.554,42.667z"/>
<polygon style="fill:#FFFFFF;" points="122.376,339.394 122.376,279.402 62.448,279.402 75.378,292.396 9.891,357.883 
	43.248,391.887 109.382,325.754 "/>
<path style="fill:#193651;" d="M43.248,400.549L0.582,357.883l66.133-66.133L47.58,272.614h81.002v81.002l-19.135-19.135
	L43.248,400.549z M18.554,357.883l24.76,24.76l66.133-66.133l6.788,6.788v-38.982H77.317l6.788,6.788L18.554,357.883z"/>
<polygon style="fill:#FFFFFF;" points="338.101,279.402 278.174,279.402 278.174,339.394 291.168,326.4 357.301,391.887 
	390.659,357.883 325.172,292.396 "/>
<path style="fill:#193651;" d="M357.301,400.549l-66.133-65.487l-19.135,19.135v-81.002h81.002l-19.135,19.135l65.552,65.552
	L357.301,400.549z M291.168,317.091l65.552,65.552l24.76-24.76l-64.97-65.487l6.788-6.788h-38.982v38.917L291.168,317.091z"/>
<g>
</g>
<g>
</g>
<g>
</g>
<g>
</g>
<g>
</g>
<g>
</g>
<g>
</g>
<g>
</g>
<g>
</g>
<g>
</g>
<g>
</g>
<g>
</g>
<g>
</g>
<g>
</g>
<g>
</g>
</svg>
