<?xml version="1.0" encoding="iso-8859-1"?>
<!-- Generator: Adobe Illustrator 19.0.0, SVG Export Plug-In . SVG Version: 6.00 Build 0)  -->
<svg version="1.1" id="Layer_1" xmlns="http://www.w3.org/2000/svg" xmlns:xlink="http://www.w3.org/1999/xlink" x="0px" y="0px"
	 viewBox="0 0 398.158 398.158" style="enable-background:new 0 0 398.158 398.158;" xml:space="preserve">
<path id="SVGCleanerId_0" style="fill:#193651;" d="M185.62,398.158h-12.347V385.81h12.347V398.158z M160.86,398.158h-12.347V385.81
	h12.347V398.158z M136.165,398.158h-12.347V385.81h12.347V398.158z M111.406,398.158H99.058V385.81h12.347V398.158z M86.711,398.158
	H74.363V385.81h12.347V398.158z M61.951,398.158H49.604V385.81h12.347V398.158z M37.256,398.158H24.844V385.81h12.347v12.347H37.256
	z M12.497,398.158H0.149V385.81h12.347V398.158z M12.497,372.816H0.149v-12.347h12.347V372.816z M12.497,348.121H0.149v-12.347
	h12.347V348.121z M12.497,323.362H0.149v-12.347h12.347V323.362z M12.497,298.667H0.149v-12.347h12.347V298.667z M12.497,273.907
	H0.149V261.56h12.347V273.907z M12.497,249.212H0.149v-12.347h12.347V249.212z M12.497,224.453H0.149v-11.766h12.347V224.453z"/>
<circle style="fill:#FFFFFF;" cx="75.592" cy="45.188" r="36.461"/>
<path style="fill:#FDBF5E;" d="M117.612,82.295H32.925c-14.869,0-26.57,11.766-26.57,26.57V147.2
	c19.135,14.222,43.248,22.885,68.59,22.885c25.988,0,49.455-8.663,68.59-22.885v-38.335
	C144.182,93.996,132.416,82.295,117.612,82.295z"/>
<path style="fill:#FFFFFF;" d="M308.836,301.382h24.889c14.028-5.107,24.048-18.489,24.048-34.327
	c0-20.17-16.356-36.461-36.461-36.461c-20.105,0-36.461,16.356-36.461,36.461C284.788,282.893,294.808,296.339,308.836,301.382z"/>
<path style="fill:#FDBF5E;" d="M363.915,303.58h-84.687c-14.869,0-26.57,11.766-26.57,26.57v38.335
	c19.135,14.222,43.248,22.885,68.59,22.885c25.988,0,49.455-8.663,68.59-22.885V330.15
	C390.485,315.345,378.784,303.58,363.915,303.58z"/>
<path id="SVGCleanerId_1" style="fill:#FFFFFF;" d="M61.951,336.356L61.951,336.356c-15.451-15.451-14.804-40.21,1.228-54.432
	l89.665-81.584c12.347-11.766,32.129-11.119,43.895,1.228l0,0c12.347,12.347,12.347,31.547,1.228,43.895l-81.584,89.665
	C102.161,351.16,77.402,351.806,61.951,336.356z"/>
<path id="SVGCleanerId_2" style="fill:#FFFFFF;" d="M363.656,34.651L363.656,34.651c-38.335-38.335-100.137-38.335-137.826,0l0,0
	c-38.335,38.335-38.335,100.137,0,137.826l0,0c38.335,38.335,100.137,38.335,137.826,0l0,0
	C401.345,134.853,401.345,72.986,363.656,34.651z"/>
<polygon style="fill:#F16051;" points="294.42,34.651 316.012,77.964 363.656,84.752 329.006,118.109 337.022,165.754 
	294.42,143.451 251.753,165.754 259.769,118.109 225.184,84.752 273.41,77.964 "/>
<g>
	<path id="SVGCleanerId_0_1_" style="fill:#193651;" d="M185.62,398.158h-12.347V385.81h12.347V398.158z M160.86,398.158h-12.347
		V385.81h12.347V398.158z M136.165,398.158h-12.347V385.81h12.347V398.158z M111.406,398.158H99.058V385.81h12.347V398.158z
		 M86.711,398.158H74.363V385.81h12.347V398.158z M61.951,398.158H49.604V385.81h12.347V398.158z M37.256,398.158H24.844V385.81
		h12.347v12.347H37.256z M12.497,398.158H0.149V385.81h12.347V398.158z M12.497,372.816H0.149v-12.347h12.347V372.816z
		 M12.497,348.121H0.149v-12.347h12.347V348.121z M12.497,323.362H0.149v-12.347h12.347V323.362z M12.497,298.667H0.149v-12.347
		h12.347V298.667z M12.497,273.907H0.149V261.56h12.347V273.907z M12.497,249.212H0.149v-12.347h12.347V249.212z M12.497,224.453
		H0.149v-11.766h12.347V224.453z"/>
</g>
<circle style="fill:#FFFFFF;" cx="75.592" cy="45.188" r="36.461"/>
<g>
	<path style="fill:#193651;" d="M117.612,76.089h-12.347c8.016-8.016,12.994-18.554,12.994-30.319
		c0-23.467-19.135-42.667-42.667-42.667c-24.113-0.646-43.248,18.554-43.248,42.02c0,11.766,4.978,22.885,12.994,30.319H32.925
		c-17.907,0-32.776,14.804-32.776,32.776v41.438c0,0,33.358,27.216,74.796,25.988c45.123,0,75.442-25.988,75.442-25.988v-41.438
		C150.388,90.311,135.519,76.089,117.612,76.089z M44.626,45.188c0-16.679,13.576-30.319,30.901-30.319
		c16.679,0,30.319,13.576,30.319,30.319S92.27,75.507,75.527,75.507C58.266,76.089,44.626,61.867,44.626,45.188z M137.975,144.097
		c-18.554,12.994-40.21,20.428-63.03,20.428s-44.477-6.788-62.448-20.428v-35.232c0-11.119,9.244-20.428,20.428-20.428h84.105
		c11.119,0,20.428,9.244,20.428,20.428v35.232H137.975z"/>
	<path style="fill:#193651;" d="M363.01,297.374h-12.347c8.016-8.016,12.994-18.554,12.994-30.319
		c0-23.467-19.135-42.667-42.667-42.667c-23.531,0-42.667,19.135-42.667,42.667c0,11.766,4.913,22.885,12.994,30.319h-12.347
		c-17.907,0-32.776,14.869-32.776,32.776v41.438c0,0,32.129,27.216,74.796,25.988c46.352,0,75.442-25.988,75.442-25.988V330.15
		C395.786,312.242,380.917,297.374,363.01,297.374z M290.089,267.119c0-16.679,13.576-30.319,30.319-30.319
		s30.319,13.576,30.319,30.319c0,16.679-13.576,30.319-30.319,30.319C303.664,297.438,290.089,283.798,290.089,267.119z
		 M383.438,365.382c-18.554,12.994-40.21,20.428-63.03,20.428s-44.541-6.788-62.448-20.428V330.15
		c0-11.119,9.244-20.428,20.428-20.428h84.105c11.119,0,20.428,9.244,20.428,20.428v35.232H383.438z"/>
</g>
<g>
	<path id="SVGCleanerId_1_1_" style="fill:#FFFFFF;" d="M61.951,336.356L61.951,336.356c-15.451-15.451-14.804-40.21,1.228-54.432
		l89.665-81.584c12.347-11.766,32.129-11.119,43.895,1.228l0,0c12.347,12.347,12.347,31.547,1.228,43.895l-81.584,89.665
		C102.161,351.16,77.402,351.806,61.951,336.356z"/>
</g>
<g>
	<path id="SVGCleanerId_2_1_" style="fill:#FFFFFF;" d="M363.656,34.651L363.656,34.651c-38.335-38.335-100.137-38.335-137.826,0
		l0,0c-38.335,38.335-38.335,100.137,0,137.826l0,0c38.335,38.335,100.137,38.335,137.826,0l0,0
		C401.345,134.853,401.345,72.986,363.656,34.651z"/>
</g>
<path style="fill:#193651;" d="M367.988,30.319C348.206,10.537,322.218,0,294.42,0c-27.798,0-53.786,10.537-73.568,30.319
	s-30.319,45.77-30.319,73.568c0,25.341,9.244,50.101,25.988,68.59l-19.782,20.428c-6.206-4.913-14.222-7.434-22.238-7.434
	c-9.244,0-18.554,3.685-25.341,9.891l-90.311,82.23c-8.663,8.016-13.576,19.135-14.222,30.901c0,12.347,4.331,23.467,12.994,32.129
	c8.016,8.016,19.135,12.994,30.901,12.994c12.347,0,24.113-4.913,32.129-14.222l81.584-89.665
	c12.347-13.576,12.994-33.358,2.457-47.58l20.428-20.428c19.135,16.679,43.248,25.988,68.59,25.988
	c27.798,0,53.786-10.537,73.568-30.319C408.133,136.663,408.133,71.176,367.988,30.319z M193.636,241.131l-81.584,89.665
	c-6.206,6.788-14.222,10.537-23.467,10.537c-8.663,0-16.097-3.103-22.238-9.244c-6.141-6.141-9.244-14.222-9.244-22.885
	c0-8.663,3.685-16.679,10.537-22.238l89.535-81.648c4.913-4.331,11.119-6.788,17.325-6.788c6.788,0,13.576,2.457,17.907,7.434
	C202.299,215.208,202.881,231.24,193.636,241.131z M359.325,168.792c-17.325,17.325-40.21,26.57-64.905,26.57
	c-24.113,0-47.58-9.244-64.905-26.57s-26.57-40.21-26.57-64.905c0-24.113,9.244-47.58,26.57-64.905s40.21-26.57,64.905-26.57
	c24.113,0,47.58,9.244,64.905,26.57C394.557,74.861,394.557,132.978,359.325,168.792z"/>
<polygon style="fill:#F16051;" points="294.42,34.651 316.012,77.964 363.656,84.752 329.006,118.109 337.022,165.754 
	294.42,143.451 251.753,165.754 259.769,118.109 225.184,84.752 273.41,77.964 "/>
<g>
	
		<rect x="89.807" y="295.067" transform="matrix(0.7073 0.707 -0.707 0.7073 241.4317 19.4407)" style="fill:#193651;" width="14.87" height="12.348"/>
	
		<rect x="121.397" y="263.547" transform="matrix(0.7071 0.7071 -0.7071 0.7071 228.4455 -12.0754)" style="fill:#193651;" width="14.804" height="12.347"/>
	
		<rect x="154.115" y="230.804" transform="matrix(-0.7071 0.7071 -0.7071 -0.7071 442.0677 293.302)" style="fill:#193651;" width="12.347" height="14.804"/>
</g>
<g>
</g>
<g>
</g>
<g>
</g>
<g>
</g>
<g>
</g>
<g>
</g>
<g>
</g>
<g>
</g>
<g>
</g>
<g>
</g>
<g>
</g>
<g>
</g>
<g>
</g>
<g>
</g>
<g>
</g>
</svg>
