<?xml version="1.0" encoding="iso-8859-1"?>
<!-- Generator: Adobe Illustrator 19.0.0, SVG Export Plug-In . SVG Version: 6.00 Build 0)  -->
<svg version="1.1" id="Layer_1" xmlns="http://www.w3.org/2000/svg" xmlns:xlink="http://www.w3.org/1999/xlink" x="0px" y="0px"
	 viewBox="0 0 395.572 395.572" style="enable-background:new 0 0 395.572 395.572;" xml:space="preserve">
<path id="SVGCleanerId_0" style="fill:#FDBF5E;" d="M6.206,391.887l13.576-108.154c2.457-21.01,23.467-38.917,51.329-43.895
	l109.446-20.428c11.119-1.875,22.885-1.875,34.004,0l109.382,20.364c28.444,4.913,48.808,22.885,51.329,43.895l14.222,108.154"/>
<path id="SVGCleanerId_1" style="fill:#FFFFFF;" d="M197.818,8.598c59.992,0,108.8,48.808,108.8,108.8S257.81,226.78,197.818,226.78
	s-108.8-48.808-108.8-108.8S137.826,8.598,197.818,8.598z"/>
<g>
	<circle style="fill:#2EA2DB;" cx="134.141" cy="117.398" r="17.325"/>
	<circle style="fill:#2EA2DB;" cx="226.263" cy="160.646" r="17.325"/>
	<circle style="fill:#2EA2DB;" cx="197.818" cy="41.374" r="17.325"/>
</g>
<rect id="SVGCleanerId_2" x="264.598" y="334.352" style="fill:#193651;" width="12.347" height="11.766"/>
<rect id="SVGCleanerId_3" x="297.374" y="334.352" style="fill:#193651;" width="12.347" height="11.766"/>
<rect id="SVGCleanerId_4" x="329.503" y="334.352" style="fill:#193651;" width="12.347" height="11.766"/>
<rect id="SVGCleanerId_5" x="53.786" y="334.352" style="fill:#193651;" width="12.347" height="11.766"/>
<rect id="SVGCleanerId_6" x="85.915" y="334.352" style="fill:#193651;" width="12.347" height="11.766"/>
<rect id="SVGCleanerId_7" x="118.691" y="334.352" style="fill:#193651;" width="12.347" height="11.766"/>
<g>
	<path id="SVGCleanerId_0_1_" style="fill:#FDBF5E;" d="M6.206,391.887l13.576-108.154c2.457-21.01,23.467-38.917,51.329-43.895
		l109.446-20.428c11.119-1.875,22.885-1.875,34.004,0l109.382,20.364c28.444,4.913,48.808,22.885,51.329,43.895l14.222,108.154"/>
</g>
<g>
	<path id="SVGCleanerId_1_1_" style="fill:#FFFFFF;" d="M197.818,8.598c59.992,0,108.8,48.808,108.8,108.8
		S257.81,226.78,197.818,226.78s-108.8-48.808-108.8-108.8S137.826,8.598,197.818,8.598z"/>
</g>
<g>
	<rect id="SVGCleanerId_2_1_" x="264.598" y="334.352" style="fill:#193651;" width="12.347" height="11.766"/>
</g>
<g>
	<rect id="SVGCleanerId_3_1_" x="297.374" y="334.352" style="fill:#193651;" width="12.347" height="11.766"/>
</g>
<g>
	<rect id="SVGCleanerId_4_1_" x="329.503" y="334.352" style="fill:#193651;" width="12.347" height="11.766"/>
</g>
<g>
	<rect id="SVGCleanerId_5_1_" x="53.786" y="334.352" style="fill:#193651;" width="12.347" height="11.766"/>
</g>
<g>
	<rect id="SVGCleanerId_6_1_" x="85.915" y="334.352" style="fill:#193651;" width="12.347" height="11.766"/>
</g>
<g>
	<rect id="SVGCleanerId_7_1_" x="118.691" y="334.352" style="fill:#193651;" width="12.347" height="11.766"/>
</g>
<polygon style="fill:#FFFFFF;" points="142.158,224.97 197.818,352.905 253.479,224.97 197.495,217.988 "/>
<path style="fill:#193651;" d="M381.414,283.669c-3.103-24.113-25.341-43.895-56.242-49.455l-74.667-13.899
	c37.042-19.071,62.319-57.665,62.319-102.271c0-63.677-51.329-115.588-115.006-115.588S82.812,54.368,82.812,117.463
	c0,44.671,25.277,83.588,62.319,102.788l-75.313,14.028c-30.901,6.206-53.139,25.988-56.242,49.455L0,391.887l12.347,1.228
	L26.57,284.962c2.457-18.554,21.01-34.004,46.352-38.917l66.327-12.347l58.57,135.305l58.57-135.499l66.909,12.477
	c25.341,4.978,43.895,20.428,46.352,38.917l13.576,108.154l12.347-1.875L381.414,283.669z M237.382,212.622
	c9.891-11.766,17.907-27.216,23.467-45.77h27.216C276.945,187.216,259.038,203.313,237.382,212.622z M300.412,117.398
	c0,12.994-2.457,25.341-6.788,37.107h-29.673c2.457-11.766,3.685-24.113,3.685-37.107c0-12.994-1.228-25.341-3.685-37.107h29.673
	C297.956,92.057,300.412,104.404,300.412,117.398z M288.065,68.525h-27.216c-5.56-18.554-13.576-34.004-23.467-45.77
	C259.038,32.065,276.945,48.162,288.065,68.525z M204.024,15.386c18.554,3.685,35.232,24.113,43.895,53.139h-43.895V15.386z
	 M204.024,80.937h46.998c2.457,11.766,4.331,24.113,4.331,36.461c0,12.994-1.228,25.341-3.685,37.107h-47.58V80.937H204.024z
	 M204.024,166.853h43.895c-8.663,28.444-25.341,48.808-43.895,53.139V166.853z M191.612,15.386v53.139h-43.895
	C156.38,40.145,173.123,19.717,191.612,15.386z M144.679,154.505c-2.457-11.766-4.331-24.113-4.331-37.107
	c0-12.994,1.228-25.341,3.685-37.107h47.58v74.214L144.679,154.505L144.679,154.505z M191.612,166.853v53.139
	c-18.554-3.685-35.232-24.113-43.895-53.139H191.612z M158.255,22.82c-9.891,11.766-17.907,27.216-23.467,45.77h-27.216
	C118.691,48.162,136.598,32.065,158.255,22.82z M95.224,117.98c0-13.576,2.457-25.988,6.788-37.107h29.673
	C129.228,92.638,128,104.986,128,117.98s1.228,25.341,3.685,37.107h-29.673C97.681,143.386,95.224,130.974,95.224,117.98z
	 M107.572,166.853h27.216c5.56,18.554,13.576,34.004,23.467,45.77C136.598,203.313,118.691,187.216,107.572,166.853z
	 M197.818,337.454l-45.705-106.279l14.093-2.65c10.02,2.844,20.622,4.396,31.612,4.396c11.055,0,21.786-1.552,31.935-4.461
	l13.834,2.586L197.818,337.454z"/>
<g>
	<circle style="fill:#2EA2DB;" cx="134.141" cy="117.398" r="17.325"/>
	<circle style="fill:#2EA2DB;" cx="226.263" cy="160.646" r="17.325"/>
	<circle style="fill:#2EA2DB;" cx="197.818" cy="41.374" r="17.325"/>
</g>
<g>
</g>
<g>
</g>
<g>
</g>
<g>
</g>
<g>
</g>
<g>
</g>
<g>
</g>
<g>
</g>
<g>
</g>
<g>
</g>
<g>
</g>
<g>
</g>
<g>
</g>
<g>
</g>
<g>
</g>
</svg>
