<?xml version="1.0" encoding="iso-8859-1"?>
<!-- Generator: Adobe Illustrator 19.0.0, SVG Export Plug-In . SVG Version: 6.00 Build 0)  -->
<svg version="1.1" id="Layer_1" xmlns="http://www.w3.org/2000/svg" xmlns:xlink="http://www.w3.org/1999/xlink" x="0px" y="0px"
	 viewBox="0 0 395.636 395.636" style="enable-background:new 0 0 395.636 395.636;" xml:space="preserve">
<g>
	<path style="fill:#FFFFFF;" d="M246.044,330.085c-6.206,0-12.347-1.875-17.325-4.331c-3.168-1.681-6.465-2.457-9.697-2.457
		c-11.119,0-21.204,9.115-21.204,21.592v44.477H6.206V197.818h45.123c16.097,0,26.57,16.679,19.135,30.901
		c-1.552,2.457-2.651,5.236-3.297,8.21c-0.711,2.909-0.97,6.012-0.97,9.115c0,22.885,20.428,40.145,43.895,35.232
		c13.576-3.103,24.76-14.222,27.798-27.798c1.875-8.663,0.646-17.325-3.103-24.113c-1.616-3.103-2.327-6.335-2.327-9.503
		c0-11.442,9.568-22.044,22.109-22.044h43.248v43.895c0,16.097,17.325,27.216,31.547,19.782c4.719-2.586,10.279-3.943,16.097-3.943
		c2.651,0,5.301,0.259,7.952,0.84c13.576,2.457,24.76,13.576,27.798,27.798C286.19,309.721,268.283,330.085,246.044,330.085z"/>
	<path style="fill:#FFFFFF;" d="M389.43,389.43L389.43,389.43L389.43,389.43z"/>
</g>
<polygon style="fill:#193651;" points="389.43,395.636 389.43,395.636 389.43,383.289 "/>
<path style="fill:#4FBF9F;" d="M114.36,110.028c3.103,13.576,14.222,24.76,27.798,27.798c8.663,1.875,17.325,0.646,24.113-3.103
	c0.646,0,0.646-0.646,1.228-0.646c12.606-6.012,27.152,1.552,30.319,14.093v49.648H154.57c-12.606,0-22.109,10.602-22.109,22.044
	c0,3.168,0.711,6.4,2.327,9.503c3.685,6.788,4.913,15.451,3.103,24.113c-3.103,13.576-14.222,24.76-27.798,27.798
	c-23.467,4.913-43.895-12.348-43.895-35.232c0-3.103,0.323-6.206,0.97-9.115c0.711-2.909,1.81-5.689,3.297-8.21
	c7.434-14.222-3.103-30.901-19.135-30.901H6.206V6.206h191.612v45.123c0,16.097-16.679,26.57-30.901,19.135
	c-2.457-1.552-5.236-2.651-8.21-3.297c-2.909-0.711-6.012-0.97-9.115-0.97C127.354,66.133,109.446,86.562,114.36,110.028z"/>
<path style="fill:#FFFFFF;" d="M390.077,6.206v191.612h-45.77c-16.097,0-25.988-17.325-18.554-31.547
	c1.552-2.457,2.651-5.236,3.362-8.21c0.711-2.909,0.97-6.012,0.97-9.115c0-22.238-20.428-40.21-43.895-35.232
	c-13.576,3.103-24.76,14.222-27.798,27.798c-1.875,8.663-0.646,17.325,3.103,24.113c0,0.582,0.646,0.582,0.646,1.228
	c6.788,14.222-3.685,30.901-19.135,30.901h-44.541v-44.477c0-15.451-16.679-25.988-30.901-19.135c-0.646,0-0.646,0.646-1.228,0.646
	c-6.788,3.685-15.451,4.913-24.113,3.103c-13.576-3.103-24.76-14.222-27.798-27.798c-4.913-23.467,12.994-43.895,35.232-43.895
	c3.103,0,6.206,0.323,9.115,0.97c2.909,0.711,5.689,1.81,8.21,3.297c14.222,7.434,30.901-3.103,30.901-19.135V6.206H390.077z"/>
<g>
	<path style="fill:#FDBF5E;" d="M389.43,197.818h-45.123c-16.097,0-25.988-17.325-18.554-31.547l0,0
		c3.103-4.913,4.331-11.119,4.331-17.325c0-22.238-20.428-40.21-43.895-35.232c-13.576,3.103-24.76,14.222-27.798,27.798
		c-1.875,8.663-0.646,17.325,3.103,24.113c0,0.646,0.646,0.646,0.646,1.228c6.788,14.222-3.685,30.901-19.135,30.901h-45.188l0,0
		l0,0v43.895c0,16.097,17.325,27.216,31.547,19.782l0,0c6.788-3.685,15.451-4.913,24.113-3.103
		c13.576,2.457,24.76,13.576,27.798,27.798c4.913,23.467-12.994,43.895-35.232,43.895c-6.206,0-12.347-1.875-17.325-4.331l0,0
		c-14.222-7.434-30.901,3.103-30.901,19.135v45.123H389.43V197.818z"/>
	<rect x="197.818" y="389.43" style="fill:#FDBF5E;" width="191.612" height="0.646"/>
</g>
<g>
	<path style="fill:#193651;" d="M0,0v395.636h395.636V0H0z M12.347,12.347h179.265v38.917c0,9.244-8.016,15.451-15.451,15.451
		c-2.457,0-4.331-0.646-6.788-1.875c-6.206-3.103-12.994-4.978-20.428-4.978c-12.994,0-24.76,5.56-32.776,15.451
		s-11.119,22.885-8.663,35.879c3.103,16.097,16.679,29.026,32.776,32.776c9.891,1.875,19.782,0.646,28.444-3.685l1.228-0.646
		c1.875-1.228,4.331-1.875,6.788-1.875c7.434,0,15.451,6.206,15.451,15.451v38.335h-37.689c-9.891,0-19.135,4.913-24.113,13.576
		c-4.913,8.016-5.56,18.554-0.646,27.216c3.103,6.206,4.331,12.994,2.457,20.428c-2.457,11.119-11.766,20.428-22.885,22.885
		c-2.457,0.646-4.331,0.646-6.788,0.646c-16.679,0-30.319-13.576-30.319-30.319c0-4.913,1.228-9.891,3.685-14.869
		c4.331-8.016,4.331-17.907-0.646-26.57c-4.978-8.016-12.994-12.994-22.238-13.576l0,0l-40.792,0.646V12.347H12.347z
		 M191.612,344.307v38.917H12.347v-179.2h38.917c5.56,0,10.537,3.103,13.576,7.434c2.457,4.331,3.103,9.891,0,14.222
		c-3.103,6.206-4.978,12.994-4.978,20.428c0,23.467,19.135,42.667,42.667,42.667c3.103,0,6.206-0.646,9.244-1.228
		c16.097-3.103,29.026-16.679,32.776-32.776c1.875-9.891,0.646-19.782-4.331-28.444c-2.457-4.913-2.457-9.891,0.646-14.869
		c3.103-4.913,8.016-8.016,13.576-8.016h37.107v37.689c0,15.451,12.347,28.444,28.444,28.444c4.331,0,8.663-1.228,12.994-3.103
		c6.206-3.103,12.994-4.331,20.428-2.457c11.119,2.457,20.428,11.766,22.885,22.885c1.875,9.244,0,18.554-6.206,25.341
		c-8.663,11.119-24.76,14.222-37.689,7.434c-3.685-1.875-8.016-3.103-12.347-3.103C204.024,316.509,191.612,329.503,191.612,344.307
		z M383.289,383.289H204.024v-38.917c0-9.244,8.016-15.451,15.451-15.451c2.457,0,4.331,0.646,6.788,1.875
		c6.206,3.103,12.994,4.913,20.428,4.913c12.994,0,24.76-5.56,32.776-15.451c8.016-9.891,11.119-22.885,8.663-35.879
		c-3.103-16.097-16.679-29.026-32.776-32.776c-9.891-1.875-19.782-0.646-28.444,4.331c-1.875,1.228-4.331,1.875-6.788,1.875
		c-7.434,0-16.097-6.206-16.097-16.097v-37.689l0,0h38.335l0,0c9.891,0,18.554-4.913,23.467-12.994
		c4.913-8.016,5.56-17.907,1.228-26.57l-0.646-1.228c-3.103-6.206-4.331-12.994-2.457-20.428
		c2.457-11.119,11.766-20.428,22.885-22.885c2.457-0.646,4.331-0.646,6.788-0.646c16.679,0,30.319,13.576,30.319,30.319
		c0,4.913-1.228,9.891-3.685,14.222c-4.913,8.663-4.331,18.554,0.646,27.216c4.913,8.016,13.576,12.994,22.885,13.576l0,0h8.016
		h31.547v178.683H383.289z M383.289,191.612h-38.917c-5.56,0-9.891-2.457-12.994-7.434c-2.457-4.331-3.103-9.891,0-14.869
		c3.103-6.206,4.913-12.994,4.913-20.428c0-23.467-19.135-42.667-42.667-42.667c-3.103,0-6.206,0.646-9.244,1.228
		c-16.097,3.103-29.026,16.679-32.776,32.776c-1.875,9.891-0.646,19.782,4.331,29.026v0.646c2.457,4.913,1.875,9.891-0.646,14.222
		c-3.103,4.913-8.016,7.434-12.994,7.434l0,0H203.96v-38.335v-10.537h-1.875c-4.331-10.537-14.222-17.325-25.341-17.325
		c-4.331,0-8.016,1.228-12.347,3.103l-0.646,0.646c-6.206,3.103-12.994,4.331-20.428,2.457
		c-11.119-2.457-20.428-11.766-22.885-22.885c-1.875-9.244,0-18.554,6.206-25.341c8.663-11.119,24.76-14.222,37.689-7.434
		c3.685,1.875,8.016,3.103,12.347,3.103c12.994,0,23.467-8.663,26.57-21.01h0.646V51.2V12.283H383.16v179.329H383.289z"/>
	<rect x="30.901" y="37.107" style="fill:#193651;" width="12.347" height="12.347"/>
	<rect x="352.388" y="37.107" style="fill:#193651;" width="12.347" height="12.347"/>
	<rect x="352.388" y="346.182" style="fill:#193651;" width="12.347" height="12.347"/>
	<rect x="30.901" y="346.182" style="fill:#193651;" width="12.347" height="12.347"/>
</g>
<g>
</g>
<g>
</g>
<g>
</g>
<g>
</g>
<g>
</g>
<g>
</g>
<g>
</g>
<g>
</g>
<g>
</g>
<g>
</g>
<g>
</g>
<g>
</g>
<g>
</g>
<g>
</g>
<g>
</g>
</svg>
