<?xml version="1.0" encoding="iso-8859-1"?>
<!-- Generator: Adobe Illustrator 19.0.0, SVG Export Plug-In . SVG Version: 6.00 Build 0)  -->
<svg version="1.1" id="Layer_1" xmlns="http://www.w3.org/2000/svg" xmlns:xlink="http://www.w3.org/1999/xlink" x="0px" y="0px"
	 viewBox="0 0 395.636 395.636" style="enable-background:new 0 0 395.636 395.636;" xml:space="preserve">
<rect x="227.491" y="3.103" style="fill:#D3D7DA;" width="116.234" height="50.683"/>
<g>
	<polygon style="fill:#FFFFFF;" points="171.248,362.279 25.341,362.279 25.341,140.347 171.248,91.475 	"/>
	<rect x="200.275" y="53.786" style="fill:#FFFFFF;" width="170.602" height="308.493"/>
</g>
<g>
	<rect x="253.479" y="284.962" style="fill:#2EA2DB;" width="63.03" height="77.253"/>
	<rect x="66.78" y="284.962" style="fill:#2EA2DB;" width="63.03" height="77.253"/>
</g>
<rect x="6.206" y="362.279" style="fill:#FFFFFF;" width="383.289" height="24.113"/>
<path style="fill:#193651;" d="M376.501,356.073V47.58H194.133v308.493h-16.097V83.459L19.135,135.37v220.703H0v36.461h395.636
	v-36.461H376.501z M206.481,59.992h158.255v296.081H206.481V59.992z M31.547,144.679l134.141-44.477v255.935H31.547V144.679z
	 M383.289,380.186H12.347V368.42h370.941L383.289,380.186L383.289,380.186z"/>
<g>
	<rect x="233.697" y="96.453" style="fill:#2EA2DB;" width="37.689" height="37.689"/>
	<rect x="299.184" y="96.453" style="fill:#2EA2DB;" width="37.689" height="37.689"/>
	<rect x="233.697" y="157.608" style="fill:#2EA2DB;" width="37.689" height="37.689"/>
	<rect x="299.184" y="157.608" style="fill:#2EA2DB;" width="37.689" height="37.689"/>
	<rect x="233.697" y="219.475" style="fill:#2EA2DB;" width="37.689" height="37.689"/>
	<rect x="299.184" y="219.475" style="fill:#2EA2DB;" width="37.689" height="37.689"/>
	<rect x="46.352" y="160.129" style="fill:#2EA2DB;" width="37.689" height="37.689"/>
	<rect x="112.485" y="160.129" style="fill:#2EA2DB;" width="37.689" height="37.689"/>
	<rect x="46.352" y="221.931" style="fill:#2EA2DB;" width="37.689" height="37.689"/>
	<rect x="112.485" y="221.931" style="fill:#2EA2DB;" width="37.689" height="37.689"/>
</g>
<g>
	<rect x="246.626" y="22.238" style="fill:#193651;" width="12.347" height="11.766"/>
	<rect x="279.402" y="22.238" style="fill:#193651;" width="12.347" height="11.766"/>
	<rect x="311.596" y="22.238" style="fill:#193651;" width="12.347" height="11.766"/>
</g>
<g>
</g>
<g>
</g>
<g>
</g>
<g>
</g>
<g>
</g>
<g>
</g>
<g>
</g>
<g>
</g>
<g>
</g>
<g>
</g>
<g>
</g>
<g>
</g>
<g>
</g>
<g>
</g>
<g>
</g>
</svg>
