<?xml version="1.0" encoding="iso-8859-1"?>
<!-- Generator: Adobe Illustrator 19.0.0, SVG Export Plug-In . SVG Version: 6.00 Build 0)  -->
<svg version="1.1" id="Layer_1" xmlns="http://www.w3.org/2000/svg" xmlns:xlink="http://www.w3.org/1999/xlink" x="0px" y="0px"
	 viewBox="0 0 398.093 398.093" style="enable-background:new 0 0 398.093 398.093;" xml:space="preserve">
<circle style="fill:#FDBF5E;" cx="198.109" cy="199.046" r="197.818"/>
<rect id="SVGCleanerId_0" x="6.497" y="7.434" style="fill:#FFFFFF;" width="124.251" height="383.289"/>
<rect id="SVGCleanerId_1" x="31.257" y="32.129" style="fill:#F16051;" width="74.796" height="333.834"/>
<g>
	<rect x="49.164" y="57.471" style="fill:#FFFFFF;" width="38.335" height="14.222"/>
	<rect x="49.164" y="88.372" style="fill:#FFFFFF;" width="38.335" height="14.222"/>
	<rect x="49.164" y="119.273" style="fill:#FFFFFF;" width="38.335" height="14.222"/>
	<circle style="fill:#FFFFFF;" cx="68.299" cy="323.943" r="19.135"/>
</g>
<rect id="SVGCleanerId_2" x="208.061" y="16.592" transform="matrix(0.9283 -0.3718 0.3718 0.9283 -54.8263 113.5655)" style="fill:#FFFFFF;" width="118.043" height="364.731"/>
<rect id="SVGCleanerId_3" x="107.661" y="163.51" transform="matrix(0.3717 0.9283 -0.9283 0.3717 352.2516 -122.3563)" style="fill:#2EA2DB;" width="317.722" height="71.108"/>
<rect id="SVGCleanerId_4" x="212.78" y="61.606" transform="matrix(0.3717 0.9284 -0.9284 0.3717 211.8934 -153.4053)" style="fill:#FFFFFF;" width="12.995" height="36.462"/>
<rect id="SVGCleanerId_5" x="223.94" y="89.003" transform="matrix(0.3717 0.9283 -0.9283 0.3717 244.3277 -146.5523)" style="fill:#FFFFFF;" width="12.993" height="36.459"/>
<rect id="SVGCleanerId_6" x="234.511" y="116.723" transform="matrix(0.3717 0.9283 -0.9283 0.3717 276.7036 -138.9499)" style="fill:#FFFFFF;" width="12.993" height="36.459"/>
<circle style="fill:#FFFFFF;" cx="311.24" cy="309.075" r="18.554"/>
<circle style="fill:#FDBF5E;" cx="198.109" cy="199.046" r="197.818"/>
<g>
	<rect id="SVGCleanerId_0_1_" x="6.497" y="7.434" style="fill:#FFFFFF;" width="124.251" height="383.289"/>
</g>
<g>
	<rect id="SVGCleanerId_1_1_" x="31.257" y="32.129" style="fill:#F16051;" width="74.796" height="333.834"/>
</g>
<g>
	<rect x="49.487" y="57.471" style="fill:#FFFFFF;" width="38.335" height="14.222"/>
	<rect x="49.487" y="88.372" style="fill:#FFFFFF;" width="38.335" height="14.222"/>
	<rect x="49.487" y="119.273" style="fill:#FFFFFF;" width="38.335" height="14.222"/>
	<circle style="fill:#FFFFFF;" cx="68.299" cy="323.943" r="19.135"/>
</g>
<g>
	
		<rect id="SVGCleanerId_2_1_" x="208.061" y="16.592" transform="matrix(0.9283 -0.3718 0.3718 0.9283 -54.8263 113.5655)" style="fill:#FFFFFF;" width="118.043" height="364.731"/>
</g>
<g>
	
		<rect id="SVGCleanerId_3_1_" x="107.661" y="163.51" transform="matrix(0.3717 0.9283 -0.9283 0.3717 352.2516 -122.3563)" style="fill:#2EA2DB;" width="317.722" height="71.108"/>
</g>
<g>
	
		<rect id="SVGCleanerId_4_1_" x="212.78" y="61.606" transform="matrix(0.3717 0.9284 -0.9284 0.3717 211.8934 -153.4053)" style="fill:#FFFFFF;" width="12.995" height="36.462"/>
</g>
<g>
	
		<rect id="SVGCleanerId_5_1_" x="223.94" y="89.003" transform="matrix(0.3717 0.9283 -0.9283 0.3717 244.3277 -146.5523)" style="fill:#FFFFFF;" width="12.993" height="36.459"/>
</g>
<g>
	
		<rect id="SVGCleanerId_6_1_" x="234.511" y="116.723" transform="matrix(0.3717 0.9283 -0.9283 0.3717 276.7036 -138.9499)" style="fill:#FFFFFF;" width="12.993" height="36.459"/>
</g>
<circle style="fill:#FFFFFF;" cx="311.24" cy="309.075" r="18.554"/>
<g>
	<path style="fill:#193651;" d="M0.291,396.865V1.228h136.598v395.636H0.291z M12.057,13.576v370.941H123.96V13.576H12.057z"/>
	<path style="fill:#193651;" d="M276.655,398.093L136.307,48.226L257.455,0l140.348,349.867L276.655,398.093z M152.404,55.014
		l131.038,327.046l98.263-39.564l-131.038-326.4L152.404,55.014z"/>
</g>
<g>
</g>
<g>
</g>
<g>
</g>
<g>
</g>
<g>
</g>
<g>
</g>
<g>
</g>
<g>
</g>
<g>
</g>
<g>
</g>
<g>
</g>
<g>
</g>
<g>
</g>
<g>
</g>
<g>
</g>
</svg>
