<?xml version="1.0" encoding="iso-8859-1"?>
<!-- Generator: Adobe Illustrator 19.0.0, SVG Export Plug-In . SVG Version: 6.00 Build 0)  -->
<svg version="1.1" id="Layer_1" xmlns="http://www.w3.org/2000/svg" xmlns:xlink="http://www.w3.org/1999/xlink" x="0px" y="0px"
	 viewBox="0 0 395.636 395.636" style="enable-background:new 0 0 395.636 395.636;" xml:space="preserve">
<g>
	<path style="fill:#FFFFFF;" d="M95.45,113.778c-2.457,10.537,5.56,19.135,14.869,19.135h98.263v118.691H16.97V74.214h191.612
		v28.444h-97.034C104.113,102.594,97.325,107.572,95.45,113.778z"/>
	<circle style="fill:#FFFFFF;" cx="112.776" cy="309.075" r="18.554"/>
</g>
<path style="fill:#FDBF5E;" d="M111.547,102.594h139.701c9.244,4.331,19.135,7.434,30.319,7.434c10.537,0,21.01-2.457,30.319-7.434
	h21.657c24.76,0,44.541,19.782,44.541,44.477v103.24c0,8.663-7.434,16.097-16.097,16.097h-27.216V389.43H227.135V266.408h-18.554
	V132.913h-98.263c-9.244,0-17.325-8.663-14.804-19.135C97.325,107.572,104.113,102.594,111.547,102.594z"/>
<circle style="fill:#FFFFFF;" cx="280.921" cy="45.123" r="38.917"/>
<g>
	<path style="fill:#193651;" d="M280.921,90.246c-24.76,0-45.123-20.428-45.123-45.123S256.162,0,280.921,0
		s45.123,20.428,45.123,45.123S305.616,90.246,280.921,90.246z M280.921,12.347c-17.907,0-32.776,14.804-32.776,32.776
		s14.869,32.776,32.776,32.776s32.776-14.804,32.776-32.776S298.828,12.347,280.921,12.347z"/>
	<path style="fill:#193651;" d="M333.479,96.453h-23.531l-1.228,0.646c-17.325,8.663-37.107,8.663-54.368,0l-1.228-0.646h-37.689
		V68.008H11.41V257.81h95.806v27.216c-10.537,2.457-18.554,12.347-18.554,24.113c0,13.576,11.119,24.76,24.76,24.76
		s24.76-11.119,24.76-24.76c0-11.766-8.016-21.01-18.554-24.113V257.81h83.459v14.869h18.554v122.958h119.337V272.614h21.01
		c12.347,0,22.238-9.891,22.238-22.238V147.717C384.162,119.337,361.277,96.453,333.479,96.453z M125.123,309.075
		c0,6.788-5.56,12.347-12.347,12.347s-12.347-5.56-12.347-12.347s5.56-12.347,12.347-12.347S125.123,301.64,125.123,309.075z
		 M202.376,245.398H23.111V80.356h179.265v16.097h-90.828c-9.891,0-19.135,6.788-21.657,16.097c-1.875,6.788,0,12.994,3.685,18.554
		c4.331,4.913,9.891,8.016,16.679,8.016h92.121V245.398L202.376,245.398z M371.814,250.376c0,5.56-4.331,9.891-9.891,9.891h-8.016
		v-69.883H341.56v70.465h-12.994v122.376h-41.438v-91.41H274.78v91.475h-41.438V260.267h-18.554v-2.457V134.141v-7.434H110.319
		c-4.331,1.875-11.119-6.206-8.663-11.119c1.875-3.685,4.913-6.788,9.244-6.788h138.473c19.782,9.244,43.248,9.244,63.03,0h21.01
		c21.01,0,38.335,17.325,38.335,38.335v103.24H371.814z"/>
	<rect x="48.453" y="171.83" style="fill:#193651;" width="129.228" height="12.347"/>
	<rect x="48.453" y="212.04" style="fill:#193651;" width="129.228" height="12.347"/>
	<rect x="274.715" y="144.032" style="fill:#193651;" width="12.347" height="12.347"/>
	<rect x="274.715" y="184.242" style="fill:#193651;" width="12.347" height="12.347"/>
	<rect x="274.715" y="223.806" style="fill:#193651;" width="12.347" height="12.347"/>
</g>
<g>
</g>
<g>
</g>
<g>
</g>
<g>
</g>
<g>
</g>
<g>
</g>
<g>
</g>
<g>
</g>
<g>
</g>
<g>
</g>
<g>
</g>
<g>
</g>
<g>
</g>
<g>
</g>
<g>
</g>
</svg>
