<?xml version="1.0" encoding="iso-8859-1"?>
<!-- Generator: Adobe Illustrator 19.0.0, SVG Export Plug-In . SVG Version: 6.00 Build 0)  -->
<svg version="1.1" id="Layer_1" xmlns="http://www.w3.org/2000/svg" xmlns:xlink="http://www.w3.org/1999/xlink" x="0px" y="0px"
	 viewBox="0 0 396.283 396.283" style="enable-background:new 0 0 396.283 396.283;" xml:space="preserve">
<polygon style="fill:#FFFFFF;" points="389.43,166.594 6.206,167.822 6.206,105.438 389.43,104.145 "/>
<polygon style="fill:#2EA2DB;" points="341.85,386.069 55.014,386.715 28.444,167.822 367.838,166.594 "/>
<path style="fill:#193651;" d="M395.636,98.004h-94.578L266.408,23.79c-3.103,2.457-6.206,3.685-9.891,4.978
	c-0.646,0-0.646,0-1.228,0l32.129,69.236l-179.265,0.646l32.129-69.236c-1.875-0.646-3.685-1.228-5.56-2.457
	c-1.875-1.228-3.685-2.457-4.913-3.685L94.578,98.586L0,99.232v74.796h22.885l26.57,218.828l297.956-0.646l25.988-219.475h22.885
	L395.636,98.004z M336.291,379.863l-275.717,0.646L35.232,174.028l325.754-1.228L336.291,379.863z M12.347,161.681V111.58
	l370.941-1.228v50.101L12.347,161.681z"/>
<g>
	<path style="fill:#FFFFFF;" d="M113.131,355.168L113.131,355.168c-7.434,0-14.222-6.206-14.804-13.576L87.208,216.695
		c-0.646-9.891,5.56-17.325,14.222-17.325l0,0c8.663,0,15.451,8.016,16.097,17.325l8.663,124.897
		C126.707,348.962,121.147,355.168,113.131,355.168z"/>
	<path style="fill:#FFFFFF;" d="M170.02,355.168L170.02,355.168c-7.434,0-13.576-6.206-14.222-13.576l-4.913-124.897
		c-0.646-9.891,6.206-17.325,14.869-17.325l0,0c8.663,0,15.451,8.016,15.451,17.325l1.875,124.897
		C183.596,348.962,177.39,355.168,170.02,355.168z"/>
	<path style="fill:#FFFFFF;" d="M226.844,354.521L226.844,354.521c-7.434,0-13.576-6.206-13.576-13.576l1.228-124.897
		c0-9.891,6.788-17.325,15.451-17.325l0,0c8.663,0,14.869,8.016,14.869,17.325l-4.331,124.897
		C240.485,348.38,234.279,354.521,226.844,354.521z"/>
	<path style="fill:#FFFFFF;" d="M283.733,354.521L283.733,354.521c-7.434,0-12.994-6.206-12.994-13.576l7.434-125.479
		c0.646-9.891,7.434-17.325,16.097-17.325l0,0c8.663,0,14.869,8.016,14.222,17.325l-10.537,124.897
		C297.374,348.38,291.168,354.521,283.733,354.521z"/>
</g>
<g>
	<rect x="158.901" y="129.552" style="fill:#193651;" width="12.347" height="12.347"/>
	<rect x="191.612" y="129.552" style="fill:#193651;" width="12.347" height="12.347"/>
	<rect x="224.388" y="129.552" style="fill:#193651;" width="12.347" height="12.347"/>
</g>
<g>
	<circle style="fill:#F16051;" cx="256.517" cy="17.648" r="14.222"/>
	<circle style="fill:#F16051;" cx="139.119" cy="17.648" r="14.222"/>
</g>
<g>
</g>
<g>
</g>
<g>
</g>
<g>
</g>
<g>
</g>
<g>
</g>
<g>
</g>
<g>
</g>
<g>
</g>
<g>
</g>
<g>
</g>
<g>
</g>
<g>
</g>
<g>
</g>
<g>
</g>
</svg>
