<?xml version="1.0" encoding="iso-8859-1"?>
<!-- Generator: Adobe Illustrator 19.0.0, SVG Export Plug-In . SVG Version: 6.00 Build 0)  -->
<svg version="1.1" id="Layer_1" xmlns="http://www.w3.org/2000/svg" xmlns:xlink="http://www.w3.org/1999/xlink" x="0px" y="0px"
	 viewBox="0 0 396.929 396.929" style="enable-background:new 0 0 396.929 396.929;" xml:space="preserve">
<rect id="SVGCleanerId_0" x="6.206" y="6.853" style="fill:#FFFFFF;" width="227.491" height="127.935"/>
<rect id="SVGCleanerId_1" x="31.547" y="31.547" style="fill:#4FBF9F;" width="177.39" height="78.481"/>
<rect id="SVGCleanerId_2" x="6.206" y="134.788" style="fill:#FFFFFF;" width="227.491" height="127.935"/>
<rect id="SVGCleanerId_3" x="31.547" y="159.547" style="fill:#4FBF9F;" width="177.39" height="78.481"/>
<rect id="SVGCleanerId_4" x="6.206" y="262.141" style="fill:#FFFFFF;" width="227.491" height="127.935"/>
<rect id="SVGCleanerId_5" x="31.547" y="286.836" style="fill:#4FBF9F;" width="177.39" height="78.481"/>
<rect id="SVGCleanerId_6" x="100.202" y="43.895" style="fill:#193651;" width="39.564" height="12.347"/>
<polygon style="fill:#E1E6E9;" points="396.283,396.283 396.929,228.137 346.828,178.036 202.15,178.036 201.568,396.283 "/>
<polygon style="fill:#D3D7DA;" points="345.6,227.491 345.6,178.036 396.283,227.491 "/>
<rect id="SVGCleanerId_7" x="237.382" y="211.459" style="fill:#2EA2DB;" width="58.117" height="42.667"/>
<g>
	<rect id="SVGCleanerId_0_1_" x="6.206" y="6.853" style="fill:#FFFFFF;" width="227.491" height="127.935"/>
</g>
<g>
	<rect id="SVGCleanerId_1_1_" x="31.547" y="31.547" style="fill:#4FBF9F;" width="177.39" height="78.481"/>
</g>
<g>
	<rect id="SVGCleanerId_2_1_" x="6.206" y="134.788" style="fill:#FFFFFF;" width="227.491" height="127.935"/>
</g>
<g>
	<rect id="SVGCleanerId_3_1_" x="31.547" y="159.547" style="fill:#4FBF9F;" width="177.39" height="78.481"/>
</g>
<g>
	<rect id="SVGCleanerId_4_1_" x="6.206" y="262.141" style="fill:#FFFFFF;" width="227.491" height="127.935"/>
</g>
<path style="fill:#193651;" d="M0,0.646v395.636h201.503v-12.347H12.412V268.347h190.384l0,0V256l0,0H12.412V140.994h215.143v37.107
	h12.347V0.646H0z M12.412,128.582V12.994h215.143v115.588H12.412z"/>
<g>
	<rect id="SVGCleanerId_5_1_" x="31.547" y="286.836" style="fill:#4FBF9F;" width="177.39" height="78.481"/>
</g>
<g>
	<rect id="SVGCleanerId_6_1_" x="100.202" y="43.895" style="fill:#193651;" width="39.564" height="12.347"/>
</g>
<g>
	<rect x="100.202" y="171.895" style="fill:#193651;" width="39.564" height="12.347"/>
	<rect x="100.202" y="299.249" style="fill:#193651;" width="39.564" height="12.347"/>
</g>
<polygon style="fill:#E1E6E9;" points="396.283,396.283 396.929,228.137 346.828,178.036 202.15,178.036 201.568,396.283 "/>
<polygon style="fill:#D3D7DA;" points="345.6,227.491 345.6,178.036 396.283,227.491 "/>
<g>
	<rect id="SVGCleanerId_7_1_" x="237.382" y="211.459" style="fill:#2EA2DB;" width="58.117" height="42.667"/>
</g>
<g>
	<rect x="237.382" y="280.695" style="fill:#193651;" width="123.022" height="12.347"/>
	<rect x="237.382" y="319.612" style="fill:#193651;" width="123.022" height="12.347"/>
	
		<rect x="252.53" y="356.404" transform="matrix(-0.004 1 -1 -0.004 623.2674 104.4066)" style="fill:#193651;" width="14.222" height="12.348"/>
	
		<rect x="292.099" y="356.404" transform="matrix(-0.004 1 -1 -0.004 662.9963 64.8381)" style="fill:#193651;" width="14.222" height="12.348"/>
	
		<rect x="331.661" y="356.404" transform="matrix(-0.004 1 -1 -0.004 702.7188 25.2762)" style="fill:#193651;" width="14.222" height="12.348"/>
</g>
<g>
</g>
<g>
</g>
<g>
</g>
<g>
</g>
<g>
</g>
<g>
</g>
<g>
</g>
<g>
</g>
<g>
</g>
<g>
</g>
<g>
</g>
<g>
</g>
<g>
</g>
<g>
</g>
<g>
</g>
</svg>
