<?xml version="1.0" encoding="iso-8859-1"?>
<!-- Generator: Adobe Illustrator 19.0.0, SVG Export Plug-In . SVG Version: 6.00 Build 0)  -->
<svg version="1.1" id="Layer_1" xmlns="http://www.w3.org/2000/svg" xmlns:xlink="http://www.w3.org/1999/xlink" x="0px" y="0px"
	 viewBox="0 0 395.636 395.636" style="enable-background:new 0 0 395.636 395.636;" xml:space="preserve">
<rect x="101.975" y="6.206" style="fill:#FFFFFF;" width="287.483" height="383.289"/>
<rect x="126.67" y="30.901" style="fill:#E1E6E9;" width="238.028" height="333.834"/>
<circle style="fill:#FFFFFF;" cx="108.763" cy="136.016" r="102.594"/>
<path style="fill:#2EA2DB;" d="M108.763,213.915c-8.663,0-17.325-1.228-25.988-4.331c-40.21-14.222-61.802-58.699-47.58-99.556
	c11.119-30.901,40.21-51.911,73.568-51.911c8.663,0,17.325,1.228,25.988,4.331c40.21,14.222,61.802,58.699,47.58,99.556
	C171.211,192.905,141.539,213.915,108.763,213.915z"/>
<path style="fill:#FFFFFF;" d="M22.848,378.311L22.848,378.311c-11.119-4.331-17.325-16.679-13.576-27.798l26.57-76.024
	c4.331-11.119,16.679-17.325,27.798-13.576l0,0c11.119,4.331,17.325,16.679,13.576,27.798l-26.57,76.606
	C46.961,376.501,34.549,382.642,22.848,378.311z"/>
<g>
	<path style="fill:#193651;" d="M72.302,258.392l6.206-17.907c5.56,1.875,11.119,3.103,17.325,3.685v151.467h299.766V0H95.769
		v27.798c-40.792,4.978-76.024,32.776-89.6,71.758c-19.135,54.432,8.016,114.36,60.574,136.598l-6.206,17.907
		c-12.994-1.875-25.988,6.788-29.673,18.554L3.648,348.638c-4.978,10.537,0.646,30.319,17.325,35.879
		c16.097,4.913,29.673-3.103,35.879-17.325l26.57-76.024C88.335,277.592,82.193,265.18,72.302,258.392z M71.656,287.483
		l-26.57,75.378c-3.103,8.016-11.766,12.347-20.428,9.891c-3.685-1.228-12.994-8.016-9.244-20.428l26.57-76.024
		c5.56-13.576,18.554-9.891,20.428-9.891C68.553,268.283,75.405,278.82,71.656,287.483z M76.634,226.844
		C26.533,208.937-0.037,153.923,17.87,103.822c13.576-38.335,50.101-64.259,90.893-64.259c11.119,0,21.657,1.875,32.129,5.56
		c45.77,16.679,76.671,68.59,58.699,123.022C178.646,226.844,113.676,241.713,76.634,226.844z M145.223,33.358
		c-11.766-4.331-36.461-6.206-37.107-6.206V12.347h275.071v370.941H108.116V244.816h0.646c45.77,0,87.143-29.026,102.594-72.339
		C231.139,114.36,200.238,53.786,145.223,33.358z"/>
	<rect x="255.898" y="272.614" style="fill:#193651;" width="12.347" height="12.347"/>
	<rect x="309.038" y="272.614" style="fill:#193651;" width="12.347" height="12.347"/>
	<rect x="255.898" y="110.675" style="fill:#193651;" width="12.347" height="12.347"/>
	<rect x="309.038" y="110.675" style="fill:#193651;" width="12.347" height="12.347"/>
	<rect x="255.898" y="191.612" style="fill:#193651;" width="12.347" height="12.347"/>
	<rect x="309.038" y="191.612" style="fill:#193651;" width="12.347" height="12.347"/>
	<rect x="241.029" y="70.465" style="fill:#193651;" width="94.578" height="12.347"/>
	<rect x="241.029" y="151.467" style="fill:#193651;" width="94.578" height="12.347"/>
	<rect x="241.029" y="231.822" style="fill:#193651;" width="94.578" height="12.347"/>
	<rect x="241.029" y="312.824" style="fill:#193651;" width="94.578" height="12.347"/>
	<polygon style="fill:#193651;" points="173.668,336.937 151.429,314.634 160.092,305.972 173.668,319.612 208.318,284.962 
		216.916,293.624 	"/>
</g>
<g>
</g>
<g>
</g>
<g>
</g>
<g>
</g>
<g>
</g>
<g>
</g>
<g>
</g>
<g>
</g>
<g>
</g>
<g>
</g>
<g>
</g>
<g>
</g>
<g>
</g>
<g>
</g>
<g>
</g>
</svg>
