<?xml version="1.0" encoding="iso-8859-1"?>
<!-- Generator: Adobe Illustrator 19.0.0, SVG Export Plug-In . SVG Version: 6.00 Build 0)  -->
<svg version="1.1" id="Layer_1" xmlns="http://www.w3.org/2000/svg" xmlns:xlink="http://www.w3.org/1999/xlink" x="0px" y="0px"
	 viewBox="0 0 395.636 395.636" style="enable-background:new 0 0 395.636 395.636;" xml:space="preserve">
<g>
	<path style="fill:#FFFFFF;" d="M197.818,277.592l-44.541,47.58L76.024,220.703l28.444-31.547c0.646-0.646,1.228-0.646,1.875,0
		L197.818,277.592z"/>
	<path style="fill:#FFFFFF;" d="M197.818,277.592l44.541,47.58l77.253-104.469l-29.026-31.547c-0.646-0.646-1.228-0.646-1.875,0
		L197.818,277.592z"/>
	<polygon style="fill:#FFFFFF;" points="319.612,220.703 242.36,325.172 197.818,277.592 153.277,325.172 76.024,220.703 
		13.576,247.273 13.576,247.273 13.576,389.43 382.061,389.43 382.061,247.273 	"/>
</g>
<path style="fill:#193651;" d="M323.297,215.725l-27.798-30.901c-3.103-3.103-8.663-3.103-10.537,0l-87.143,83.459l0,0l0,0
	l-86.562-83.459c-3.103-3.103-8.016-3.103-11.119,0l-27.798,30.901L7.434,242.941v152.695h380.768V242.941L323.297,215.725z
	 M289.293,196.59l21.657,24.113l-69.236,94.578l-35.232-37.689L289.293,196.59z M106.343,196.59l82.812,81.002l-35.232,37.689
	l-69.818-94.578L106.343,196.59z M375.855,383.289H19.782V251.604l54.432-22.885l78.481,106.343l45.123-48.226l45.123,48.226
	l78.481-106.925l54.368,22.885v132.267H375.855z"/>
<path style="fill:#FDBF5E;" d="M159.483,170.02v25.341h76.671V170.02c0-17.907,6.206-34.651,17.325-48.226
	c9.891-12.347,15.45-27.216,15.45-43.895c0-42.02-36.461-75.442-79.127-70.465c-32.776,3.685-58.699,30.319-62.448,62.448
	c-2.457,19.782,3.685,37.689,14.222,51.911C152.695,135.37,159.483,152.048,159.483,170.02z"/>
<path style="fill:#FFFFFF;" d="M199.046,225.616h-1.875c-11.766,0-21.01-9.244-21.01-21.01v-8.663h44.477v8.663
	C220.057,215.725,210.812,225.616,199.046,225.616z"/>
<g>
	<path style="fill:#193651;" d="M197.818,0c-3.103,0-5.56,0-8.663,0.646c-35.232,3.685-64.323,32.776-68.008,68.008
		c-2.457,20.428,3.103,40.21,15.45,56.242c10.537,13.576,16.679,29.673,16.679,45.123v31.547h16.097v2.457
		c0,14.869,12.347,27.216,27.216,27.216h1.875c14.869,0,27.216-12.347,27.216-27.216v-2.457h16.097V170.02
		c0-16.097,5.56-31.547,16.097-44.477c11.119-13.576,16.679-30.319,16.679-48.226C275.071,34.651,240.485,0,197.818,0z
		 M213.915,204.606c0,8.016-6.788,14.869-14.869,14.869h-1.875c-8.016,0-14.869-6.788-14.869-14.869v-2.457h32.129v2.457H213.915z
		 M248.501,117.463c-11.766,15.451-18.554,34.004-18.554,52.558v19.135h-64.323V170.02c0-18.554-6.788-37.107-19.135-53.139
		c-10.537-13.576-14.804-30.319-12.994-47.58c3.103-29.673,27.216-53.786,56.889-56.889c2.457,0,4.978,0,7.434,0
		c35.879,0,64.905,29.026,64.905,64.905C262.723,92.121,257.81,106.343,248.501,117.463z"/>
	<path style="fill:#193651;" d="M213.915,85.333c-5.56,0-11.119,0-16.679,0c-2.457,0-5.56,0-8.016,0
		c0.646-1.875,1.875-3.685,2.457-5.56c1.875-4.331,3.685-9.244,5.56-13.576c3.685-9.244,7.434-17.907,9.891-27.798
		c-6.206,8.016-11.766,16.097-16.679,24.113c-2.457,4.331-4.913,8.016-7.434,12.347c-2.457,4.331-4.913,8.663-7.434,12.994
		l-4.331,8.016h9.244c5.56,0,11.119,0,16.679,0c2.457,0,5.56,0,8.016,0c-2.457,5.56-4.913,11.766-7.434,17.325
		c-3.685,8.663-6.788,17.325-9.244,26.57c5.56-7.434,11.119-14.804,16.097-22.885c4.913-8.016,9.891-16.097,14.222-24.113
		l4.331-7.434L213.915,85.333z"/>
	<rect x="322.069" y="283.733" style="fill:#193651;" width="12.347" height="12.347"/>
	<rect x="322.069" y="317.156" style="fill:#193651;" width="12.347" height="12.347"/>
	<rect x="322.069" y="351.095" style="fill:#193651;" width="12.347" height="12.347"/>
	<rect x="61.22" y="283.733" style="fill:#193651;" width="12.347" height="12.347"/>
	<rect x="61.22" y="317.156" style="fill:#193651;" width="12.347" height="12.347"/>
	<rect x="61.22" y="351.095" style="fill:#193651;" width="12.347" height="12.347"/>
</g>
<g>
</g>
<g>
</g>
<g>
</g>
<g>
</g>
<g>
</g>
<g>
</g>
<g>
</g>
<g>
</g>
<g>
</g>
<g>
</g>
<g>
</g>
<g>
</g>
<g>
</g>
<g>
</g>
<g>
</g>
</svg>
