<?xml version="1.0" encoding="iso-8859-1"?>
<!-- Generator: Adobe Illustrator 19.0.0, SVG Export Plug-In . SVG Version: 6.00 Build 0)  -->
<svg version="1.1" id="Layer_1" xmlns="http://www.w3.org/2000/svg" xmlns:xlink="http://www.w3.org/1999/xlink" x="0px" y="0px"
	 viewBox="0 0 383.289 383.289" style="enable-background:new 0 0 383.289 383.289;" xml:space="preserve">
<g>
	<path style="fill:#2EA2DB;" d="M96.42,7.37C60.541,19.717,30.869,46.287,14.836,80.291h42.02
		C64.937,49.455,79.16,24.113,96.42,7.37z"/>
	<path style="fill:#2EA2DB;" d="M14.836,205.834c16.097,34.004,45.77,59.992,81.584,72.921
		c-17.907-16.679-32.129-42.02-40.145-72.339H14.836V205.834z"/>
	<path style="fill:#2EA2DB;" d="M277.56,92.703h-44.541c2.457,12.994,4.331,25.988,4.913,40.21h48.226
		C284.994,118.691,281.891,105.051,277.56,92.703z"/>
	<path style="fill:#2EA2DB;" d="M272,80.356c-16.679-34.004-46.352-59.992-82.23-72.339c17.907,16.097,32.129,41.438,40.21,72.339
		H272z"/>
	<path style="fill:#2EA2DB;" d="M48.259,142.804c0-17.907,1.875-34.651,4.978-50.683H9.277c-6.206,15.451-9.244,32.711-9.244,50.683
		c0,17.907,3.103,34.586,9.244,50.683h44.477C50.069,177.39,48.259,160.711,48.259,142.804z"/>
	<path style="fill:#2EA2DB;" d="M69.269,205.834c6.788,24.76,17.907,45.123,31.547,59.345v-59.345H69.269L69.269,205.834z"/>
	<path style="fill:#2EA2DB;" d="M149.624,0v80.356h68.008C205.22,35.814,179.297,4.331,149.624,0z"/>
	<path style="fill:#2EA2DB;" d="M137.277,132.913v-40.21H66.166c-3.685,15.451-5.56,32.776-5.56,50.683s1.875,34.651,5.56,50.683
		h34.586v-60.574h36.461v-0.582H137.277z"/>
	<path style="fill:#2EA2DB;" d="M220.671,92.703h-71.046v40.21h76.024C225.002,118.691,223.192,105.051,220.671,92.703z"/>
	<path style="fill:#2EA2DB;" d="M137.277,80.356V0c-29.673,3.685-55.661,35.232-68.008,79.774h68.008V80.356z"/>
</g>
<rect x="118.723" y="151.402" style="fill:#FFFFFF;" width="258.392" height="225.616"/>
<path style="fill:#FDBF5E;" d="M356.105,248.436v107.572H139.733V248.436c10.925,9.632,25.212,15.451,40.792,15.451h134.788
	C330.893,263.952,345.18,258.069,356.105,248.436z"/>
<g>
	<rect x="205.22" y="118.691" style="fill:#FFFFFF;" width="85.915" height="32.776"/>
	<path style="fill:#FFFFFF;" d="M315.313,263.952H180.525c-34.004,0-61.802-27.798-61.802-61.802v-50.683h258.392v50.683
		C377.115,236.154,349.253,263.952,315.313,263.952z"/>
</g>
<g>
	<rect x="220.089" y="189.156" style="fill:#193651;" width="12.347" height="12.347"/>
	<rect x="241.745" y="189.156" style="fill:#193651;" width="12.347" height="12.347"/>
	<rect x="263.984" y="189.156" style="fill:#193651;" width="12.347" height="12.347"/>
</g>
<rect x="223.192" y="239.192" style="fill:#FFFFFF;" width="50.101" height="50.101"/>
<path style="fill:#193651;" d="M297.341,145.261v-32.776h-98.263v32.776h-86.562v238.028h270.739V145.261H297.341z M211.426,124.832
	h73.568v20.428h-73.568V124.832z M370.909,370.877H124.865v-129.81c12.347,17.325,32.776,29.026,55.661,29.026h35.879v25.341h62.448
	v-25.341h36.461c22.885,0,43.249-11.766,55.661-29.026v129.81H370.909z M229.333,283.087v-37.689h37.689v37.689H229.333z
	 M370.909,202.149c0,30.901-24.76,55.661-55.661,55.661H279.37v-25.341h-62.449v25.341h-35.879
	c-30.901,0-55.661-24.76-55.661-55.661v-44.541H370.78v44.541H370.909z"/>
<g>
</g>
<g>
</g>
<g>
</g>
<g>
</g>
<g>
</g>
<g>
</g>
<g>
</g>
<g>
</g>
<g>
</g>
<g>
</g>
<g>
</g>
<g>
</g>
<g>
</g>
<g>
</g>
<g>
</g>
</svg>
