<?xml version="1.0" encoding="iso-8859-1"?>
<!-- Generator: Adobe Illustrator 19.0.0, SVG Export Plug-In . SVG Version: 6.00 Build 0)  -->
<svg version="1.1" id="Layer_1" xmlns="http://www.w3.org/2000/svg" xmlns:xlink="http://www.w3.org/1999/xlink" x="0px" y="0px"
	 viewBox="0 0 395.636 395.636" style="enable-background:new 0 0 395.636 395.636;" xml:space="preserve">
<polygon style="fill:#FFFFFF;" points="197.818,61.448 130.457,101.012 197.818,139.929 265.18,101.012 "/>
<g>
	<polygon style="fill:#D3D7DA;" points="197.818,139.929 197.818,218.474 265.18,179.493 265.18,101.012 	"/>
	<polygon style="fill:#D3D7DA;" points="130.457,101.012 130.457,179.493 197.818,218.474 197.818,139.929 	"/>
</g>
<path style="fill:#193651;" d="M270.739,97.909c0,0-1.875-1.875-2.457-2.457l0,0l0,0l0,0L200.921,56.47
	c-1.875-1.228-4.331-1.228-6.206,0l-67.362,38.982c-0.646,0-1.875,1.875-2.457,2.457c0,0-0.646,2.457-0.646,3.103v78.481
	c0,2.457,1.228,4.331,3.103,5.56l67.362,38.917l0,0l0,0c0,0,2.457,0.646,3.103,0.646c0.646,0,2.457-0.646,3.103-0.646l0,0l0,0
	l67.362-38.917c1.875-1.228,3.103-3.103,3.103-5.56v-78.481C271.386,100.365,270.739,97.909,270.739,97.909z M191.612,207.937
	l-55.014-32.129v-64.259l55.014,32.129V207.937z M197.818,133.141l-55.661-32.129l55.014-32.129l55.014,32.129L197.818,133.141z
	 M259.038,175.808l-55.014,32.129v-64.259l55.014-32.129V175.808z"/>
<g>
	<path style="fill:#FFFFFF;" d="M388.525,99.784c0-9.244-7.434-17.325-16.679-17.325c-9.244,0-16.679,6.788-17.907,16.097
		l-13.576,87.337c-1.034-5.624-4.525-10.667-9.956-13.188c-9.244-4.331-20.428-0.646-25.341,8.663L281.6,228.365
		c-1.228,1.875-2.457,4.331-4.331,5.56l-30.901,22.238c-1.875,1.875-3.685,3.685-4.913,6.206l-19.135,38.917l77.899,38.917
		l8.663-17.325l71.693-72.339c6.206-6.206,9.244-14.222,9.244-22.238L388.525,99.784z"/>
	<path style="fill:#FFFFFF;" d="M148.687,256.163l-30.901-22.238c-1.875-1.228-3.103-3.685-4.331-5.56l-23.467-46.998
		c-4.913-9.244-16.097-12.994-25.341-8.663c-5.301,2.457-8.792,7.434-9.891,12.929L41.697,98.491
		c-1.228-9.244-8.663-16.097-17.907-16.097S7.111,90.474,7.111,99.784L5.883,228.365c0,8.016,3.103,16.097,9.244,22.238
		l71.111,72.339l8.663,17.325l77.899-39.564l-19.135-38.335C152.372,259.848,150.497,258.038,148.687,256.163z"/>
</g>
<polygon style="fill:#2EA2DB;" points="210.812,295.081 197.818,320.422 184.824,295.081 85.915,344.535 108.154,388.43 
	287.483,388.43 309.721,344.535 "/>
<g>
	<path style="fill:#193651;" d="M384.517,254.935c6.788-6.788,11.119-16.679,11.119-26.57l-1.228-129.228
		c0-12.994-10.537-23.467-23.467-23.467c-11.766,0-22.238,9.244-24.113,21.01l-10.537,71.693
		c-1.228-0.646-21.01-14.869-36.461,9.244l-23.467,46.998c-0.646,1.228-1.875,2.457-2.457,3.685l-30.319,22.238l-0.646,0.646
		c-2.457,2.457-4.331,4.978-6.206,8.016l-16.679,32.776l-12.347-6.206l-9.891,21.075l-9.891-20.428l-12.347,6.206l-16.679-32.776
		c-1.228-3.103-3.685-5.56-6.206-8.016l-30.901-22.885c-1.228-1.228-1.875-2.457-2.457-3.685l-23.467-46.998
		c-14.222-22.885-35.879-11.119-36.461-9.244L48.226,97.262c-1.875-11.766-11.766-21.01-24.113-21.01
		c-12.994,0-22.885,10.537-22.885,23.467L0,227.719c0,9.891,3.685,19.782,11.119,26.57l71.111,71.693l5.56,10.537l-9.244,4.978
		l26.57,52.558h187.281l26.57-52.558l-9.244-4.978l5.56-10.537L384.517,254.935z M19.782,246.272
		c-4.913-4.913-7.434-11.766-7.434-17.907l1.228-128.582c0-6.206,4.978-11.119,11.119-11.119c5.56,0,11.119,4.331,11.766,10.537
		l12.347,86.562c-0.646,4.978,0,10.537,2.457,14.869L70.4,238.967c1.228,1.875,1.228,4.331,0.646,6.206
		c-0.259,0.776-0.646,1.552-1.099,2.198c-1.293,1.875-1.552,4.202-0.517,6.206l0.194,0.388c1.939,3.943,7.434,4.59,10.085,1.099
		c1.487-1.875,2.521-4.008,3.103-6.206c1.875-4.978,1.228-10.537-1.228-15.451l-19.135-37.689l-1.228-9.891
		c0.646-3.685,3.103-6.206,6.206-8.016c6.206-3.103,13.576,0,16.679,6.206l23.467,46.998c1.228,3.103,3.103,5.56,5.56,7.434
		l31.547,22.885c1.228,1.228,2.457,2.457,3.103,4.331l16.679,32.776l-66.198,33.164l-5.56-11.119L19.782,246.272z M283.733,382.289
		h-171.83l-17.325-34.586l87.79-44.541l15.451,30.901l15.451-30.901l87.79,43.895L283.733,382.289z M304.162,318.612l-6.788,12.929
		l-66.133-33.358l16.679-32.776c0.646-1.875,1.875-3.103,3.103-4.331l30.319-22.238l0.646-0.646c2.457-1.875,4.331-4.913,5.56-7.434
		l23.402-46.933c3.103-6.206,10.537-8.663,16.679-6.206c3.103,1.875,5.56,4.331,6.206,8.016l-1.228,9.891l-19.135,37.689
		c-3.556,7.046-2.651,15.321,1.745,21.333c2.651,3.685,8.275,3.232,10.279-0.84l0.129-0.323c1.034-2.069,0.711-4.525-0.646-6.4
		c-1.681-2.327-2.133-5.56-0.388-8.21l19.135-38.335c2.457-4.913,3.103-9.891,2.457-14.804l12.347-87.143
		c0.646-6.206,5.56-10.537,11.766-10.537s10.537,4.978,11.119,11.119l1.875,129.228c0,6.788-2.457,12.994-7.434,17.907
		L304.162,318.612z"/>
	<rect x="142.804" y="351.323" style="fill:#193651;" width="12.347" height="12.347"/>
	<rect x="191.612" y="351.323" style="fill:#193651;" width="12.347" height="12.347"/>
	<rect x="240.485" y="351.323" style="fill:#193651;" width="12.347" height="12.347"/>
	<rect x="191.612" y="5.206" style="fill:#193651;" width="12.347" height="36.461"/>
	
		<rect x="94.215" y="17.745" transform="matrix(0.6587 0.7524 -0.7524 0.6587 58.3817 -80.8667)" style="fill:#193651;" width="48.226" height="12.347"/>
	
		<rect x="253.184" y="17.614" transform="matrix(-0.6589 0.7522 -0.7522 -0.6589 477.9058 -169.1256)" style="fill:#193651;" width="48.225" height="12.347"/>
</g>
<g>
</g>
<g>
</g>
<g>
</g>
<g>
</g>
<g>
</g>
<g>
</g>
<g>
</g>
<g>
</g>
<g>
</g>
<g>
</g>
<g>
</g>
<g>
</g>
<g>
</g>
<g>
</g>
<g>
</g>
</svg>
