<?xml version="1.0" encoding="iso-8859-1"?>
<!-- Generator: Adobe Illustrator 19.0.0, SVG Export Plug-In . SVG Version: 6.00 Build 0)  -->
<svg version="1.1" id="Layer_1" xmlns="http://www.w3.org/2000/svg" xmlns:xlink="http://www.w3.org/1999/xlink" x="0px" y="0px"
	 viewBox="0 0 395.636 395.636" style="enable-background:new 0 0 395.636 395.636;" xml:space="preserve">
<circle style="fill:#FDBF5E;" cx="197.818" cy="197.818" r="197.818"/>
<rect x="49.455" y="35.879" style="fill:#FFFFFF;" width="297.374" height="353.616"/>
<rect x="74.214" y="60.574" style="fill:#E1E6E9;" width="247.919" height="304.162"/>
<rect x="123.022" y="6.206" style="fill:#4FBF9F;" width="149.592" height="56.889"/>
<g>
	<path style="fill:#193651;" d="M278.82,29.673V0H116.816v29.673H43.248v365.964h309.075V29.673H278.82z M129.228,12.347h137.244
		v44.541H129.228V12.347z M339.976,383.289H55.661V42.02h61.22v27.216H278.82V42.02h61.22L339.976,383.289L339.976,383.289z"/>
	<rect x="161.939" y="28.444" style="fill:#193651;" width="12.347" height="12.347"/>
	<rect x="191.612" y="28.444" style="fill:#193651;" width="12.347" height="12.347"/>
	<rect x="221.285" y="28.444" style="fill:#193651;" width="12.347" height="12.347"/>
	<path style="fill:#193651;" d="M256.517,139.119L226.263,108.8l-30.319,30.319l8.663,8.663l15.451-15.451v58.699h-64.259v74.214
		c-10.537,2.457-18.554,12.347-18.554,24.113c0,13.576,11.119,24.76,24.76,24.76s24.76-11.119,24.76-24.76
		c0-11.766-8.016-21.01-18.554-24.113v-61.802h64.259v-71.111l15.451,15.451L256.517,139.119z M174.352,289.293
		c0,6.788-5.56,12.347-12.347,12.347s-12.347-5.56-12.347-12.347c0-6.788,5.56-12.347,12.347-12.347
		S174.352,282.505,174.352,289.293z"/>
	<path style="fill:#193651;" d="M129.228,179.265c-13.576,0-24.76-11.119-24.76-24.76c0-13.64,11.119-24.76,24.76-24.76
		s24.76,11.119,24.76,24.76C153.988,168.145,142.804,179.265,129.228,179.265z M129.228,142.158c-6.788,0-12.347,5.56-12.347,12.347
		s5.56,12.347,12.347,12.347c6.788,0,12.347-5.56,12.347-12.347S136.016,142.158,129.228,142.158z"/>
	<polygon style="fill:#193651;" points="289.293,256.517 280.63,247.919 266.408,262.141 252.186,247.919 243.588,256.517 
		257.81,270.739 243.588,284.962 252.186,293.624 266.408,279.402 280.63,293.624 289.293,284.962 275.071,270.739 	"/>
</g>
<g>
</g>
<g>
</g>
<g>
</g>
<g>
</g>
<g>
</g>
<g>
</g>
<g>
</g>
<g>
</g>
<g>
</g>
<g>
</g>
<g>
</g>
<g>
</g>
<g>
</g>
<g>
</g>
<g>
</g>
</svg>
