<?xml version="1.0" encoding="iso-8859-1"?>
<!-- Generator: Adobe Illustrator 19.0.0, SVG Export Plug-In . SVG Version: 6.00 Build 0)  -->
<svg version="1.1" id="Layer_1" xmlns="http://www.w3.org/2000/svg" xmlns:xlink="http://www.w3.org/1999/xlink" x="0px" y="0px"
	 viewBox="0 0 395.701 395.701" style="enable-background:new 0 0 395.701 395.701;" xml:space="preserve">
<circle style="fill:#4FBF9F;" cx="197.85" cy="197.818" r="166.917"/>
<polygon style="fill:#ECF0F3;" points="243.62,0 243.62,104.533 216.404,90.246 216.404,254.061 179.297,254.061 179.297,90.246 
	152.081,104.533 152.081,39.564 "/>
<g>
	<path style="fill:#FFFFFF;" d="M216.404,90.246v231.176c0,10.537-8.663,18.554-18.554,18.554l0,0
		c-10.537,0-18.554-8.663-18.554-18.554V90.246l-51.911,27.216v201.503c0,38.917,31.547,70.465,70.465,70.465l0,0
		c38.917,0,70.465-31.547,70.465-70.465V117.463L216.404,90.246z"/>
	<polyline style="fill:#FFFFFF;" points="164.493,286.19 164.493,254.707 231.855,254.707 231.855,286.19 	"/>
</g>
<g>
	<path style="fill:#193651;" d="M210.198,321.487c0,6.788-5.56,12.347-12.347,12.347c-6.788,0-12.347-5.56-12.347-12.347v-20.428
		h-12.347v20.428c0,13.576,11.119,24.76,24.76,24.76c13.64,0,24.76-11.119,24.76-24.76v-20.428h-12.347v20.428H210.198z"/>
	<path style="fill:#193651;" d="M210.198,79.774v168.792h-24.76V79.774l-64.259,34.004V319.03c0,42.02,34.004,76.671,76.671,76.671
		s76.671-34.586,76.671-76.671V113.713L210.198,79.774z M262.174,318.966c0,35.232-28.444,64.323-64.323,64.323
		s-64.259-29.026-64.259-64.323V121.147l39.564-21.01v148.364h-14.804v37.689h12.347v-25.341h54.949v25.341h12.347v-37.689h-15.451
		V100.137l39.564,21.01v197.818H262.174z"/>
	<rect x="237.414" y="131.038" style="fill:#193651;" width="12.994" height="12.347"/>
	<rect x="237.414" y="165.042" style="fill:#193651;" width="12.994" height="12.347"/>
	<rect x="237.414" y="198.465" style="fill:#193651;" width="12.994" height="12.347"/>
	<rect x="145.293" y="131.038" style="fill:#193651;" width="12.994" height="12.347"/>
	<rect x="145.293" y="165.042" style="fill:#193651;" width="12.994" height="12.347"/>
	<rect x="145.293" y="198.465" style="fill:#193651;" width="12.994" height="12.347"/>
</g>
<g>
</g>
<g>
</g>
<g>
</g>
<g>
</g>
<g>
</g>
<g>
</g>
<g>
</g>
<g>
</g>
<g>
</g>
<g>
</g>
<g>
</g>
<g>
</g>
<g>
</g>
<g>
</g>
<g>
</g>
</svg>
