<?xml version="1.0" encoding="iso-8859-1"?>
<!-- Generator: Adobe Illustrator 19.0.0, SVG Export Plug-In . SVG Version: 6.00 Build 0)  -->
<svg version="1.1" id="Layer_1" xmlns="http://www.w3.org/2000/svg" xmlns:xlink="http://www.w3.org/1999/xlink" x="0px" y="0px"
	 viewBox="0 0 399.321 399.321" style="enable-background:new 0 0 399.321 399.321;" xml:space="preserve">
<rect x="8.333" y="64.323" style="fill:#FFFFFF;" width="336.291" height="278.174"/>
<rect x="33.028" y="89.018" style="fill:#4FBF9F;" width="286.836" height="228.719"/>
<rect x="8.333" y="6.206" style="fill:#FFFFFF;" width="336.291" height="58.117"/>
<g>
	<rect x="81.254" y="126.772" style="fill:#193651;" width="189.156" height="12.347"/>
	<rect x="81.254" y="171.248" style="fill:#193651;" width="189.156" height="12.347"/>
	<rect x="81.254" y="216.372" style="fill:#193651;" width="95.224" height="12.347"/>
</g>
<path style="fill:#FFFFFF;" d="M303.185,212.04c-48.808,0-88.372,39.564-88.372,88.372c0,17.907,5.56,34.586,14.222,48.226
	l-14.222,40.21l40.21-14.222c14.222,9.244,30.319,14.222,48.226,14.222c48.808,0,88.372-39.564,88.372-88.372
	S351.993,212.04,303.185,212.04z"/>
<path style="fill:#193651;" d="M350.765,218.828V0H2.127v348.638h218.828c0,0.646,0.646,0.646,0.646,1.228l-17.907,49.455
	l49.455-17.907c14.869,9.244,31.547,13.576,49.455,13.576c52.558,0,94.578-42.667,94.578-94.578
	C397.763,265.826,379.21,235.572,350.765,218.828z M14.474,12.412h323.943v45.705H14.474V12.412z M14.474,336.291V70.465h323.943
	v142.158c-11.119-4.331-22.885-6.788-35.879-6.788c-52.558,0-94.578,42.667-94.578,94.578c0,12.347,2.457,24.76,6.788,35.879H14.474
	z M303.185,383.289c-24.113,1.228-47.58-14.869-47.58-15.451l-30.901,11.119l11.119-30.901c0,0-15.451-19.782-15.451-47.58
	c0-45.77,37.107-82.23,82.23-82.23c45.77,0,82.812,37.107,82.812,82.23S348.309,382.642,303.185,383.289z"/>
<path style="fill:#FDBF5E;" d="M303.185,364.735c-35.232,0-63.677-28.444-63.677-63.677s28.444-63.677,63.677-63.677
	c35.232-0.646,63.677,27.798,63.677,63.03C366.862,335.709,338.418,364.735,303.185,364.735z"/>
<g>
	<path style="fill:#193651;" d="M303.185,294.917c-6.206,0-11.119-4.913-11.119-11.119s4.978-11.119,11.119-11.119
		s11.119,4.978,11.119,11.119h12.347c0-10.861-7.305-19.976-17.325-22.691v-5.754h-12.347v5.754
		c-9.956,2.715-17.325,11.83-17.325,22.691c0,12.994,10.537,23.467,23.467,23.467c6.206,0,11.119,4.978,11.119,11.119
		s-4.913,11.119-11.119,11.119c-6.206,0-11.119-4.913-11.119-11.119h-12.347c0,10.861,7.305,19.976,17.325,22.691v5.172h12.347
		v-5.172c9.956-2.715,17.325-11.83,17.325-22.691C326.652,305.39,316.179,294.917,303.185,294.917z"/>
	<rect x="57.787" y="29.091" style="fill:#193651;" width="12.347" height="12.347"/>
	<rect x="82.482" y="29.091" style="fill:#193651;" width="12.347" height="12.347"/>
	<rect x="33.028" y="29.091" style="fill:#193651;" width="12.347" height="12.347"/>
</g>
<g>
</g>
<g>
</g>
<g>
</g>
<g>
</g>
<g>
</g>
<g>
</g>
<g>
</g>
<g>
</g>
<g>
</g>
<g>
</g>
<g>
</g>
<g>
</g>
<g>
</g>
<g>
</g>
<g>
</g>
</svg>
