<?xml version="1.0" encoding="iso-8859-1"?>
<!-- Generator: Adobe Illustrator 19.0.0, SVG Export Plug-In . SVG Version: 6.00 Build 0)  -->
<svg version="1.1" id="Layer_1" xmlns="http://www.w3.org/2000/svg" xmlns:xlink="http://www.w3.org/1999/xlink" x="0px" y="0px"
	 viewBox="0 0 388.137 388.137" style="enable-background:new 0 0 388.137 388.137;" xml:space="preserve">
<rect x="64.259" y="23.531" style="fill:#FFFFFF;" width="272.032" height="358.529"/>
<rect x="88.954" y="54.432" style="fill:#FDBF5E;" width="222.578" height="302.287"/>
<g>
	<rect x="113.713" y="179.911" style="fill:#193651;" width="173.123" height="12.347"/>
	<rect x="113.713" y="139.119" style="fill:#193651;" width="111.257" height="12.347"/>
	<rect x="113.713" y="97.681" style="fill:#193651;" width="173.123" height="12.347"/>
	<rect x="161.293" y="301.705" style="fill:#193651;" width="12.347" height="12.347"/>
	<rect x="194.069" y="301.705" style="fill:#193651;" width="12.347" height="12.347"/>
	<rect x="226.844" y="301.705" style="fill:#193651;" width="12.347" height="12.347"/>
</g>
<polygon style="fill:#FFFFFF;" points="336.226,280.695 64.259,280.695 21.01,255.354 64.259,230.012 336.226,230.012 "/>
<path style="fill:#4FBF9F;" d="M336.226,230.012v50.683h24.76c6.788,0,12.347-5.56,12.347-12.348V242.36
	c0-6.788-5.56-12.347-12.347-12.347H336.226z"/>
<path style="fill:#193651;" d="M360.986,223.806h-18.554V17.325h-33.358V0h-12.347v16.679H257.81V0h-12.347v16.679h-38.917V0
	h-12.477v16.679h-38.917V0h-12.347v16.679h-38.917V0H91.539v16.679H58.053v209.584L8.598,255.289l49.455,29.026v103.822h284.38
	V286.836h18.554c10.537,0,18.554-8.016,18.554-18.554v-25.988C379.539,232.469,371.459,223.806,360.986,223.806z M91.475,29.673
	V40.21h12.347V29.673h38.917V40.21h12.347V29.673h38.982V40.21h12.347V29.673h38.917V40.21h12.347V29.673h38.917V40.21h12.347
	V29.673h21.01v194.133l0,0H70.465V29.673H91.475z M66.133,236.154h263.951v38.335H66.133l-32.776-19.135L66.133,236.154z
	 M330.085,375.855H70.465v-89.018h259.62l0,0V375.855z M367.192,268.347c0,3.685-2.457,6.206-6.206,6.206h-18.554v-38.4h18.554
	c3.685,0,6.206,2.457,6.206,6.206V268.347z"/>
<g>
</g>
<g>
</g>
<g>
</g>
<g>
</g>
<g>
</g>
<g>
</g>
<g>
</g>
<g>
</g>
<g>
</g>
<g>
</g>
<g>
</g>
<g>
</g>
<g>
</g>
<g>
</g>
<g>
</g>
</svg>
