<?xml version="1.0" encoding="iso-8859-1"?>
<!-- Generator: Adobe Illustrator 19.0.0, SVG Export Plug-In . SVG Version: 6.00 Build 0)  -->
<svg version="1.1" id="Layer_1" xmlns="http://www.w3.org/2000/svg" xmlns:xlink="http://www.w3.org/1999/xlink" x="0px" y="0px"
	 viewBox="0 0 395.636 395.636" style="enable-background:new 0 0 395.636 395.636;" xml:space="preserve">
<polygon style="fill:#FFFFFF;" points="262.691,6.206 43.216,6.206 43.216,389.43 352.356,389.43 352.356,95.806 "/>
<path style="fill:#193651;" d="M358.497,395.636H37.075V0h228.137l93.349,93.349v302.287H358.497z M49.422,383.289H346.15V98.263
	l-85.915-85.915H49.422V383.289z"/>
<polygon style="fill:#E1E6E9;" points="67.976,364.735 67.976,30.901 252.8,30.901 327.596,105.697 327.596,364.735 "/>
<g>
	<rect x="87.758" y="179.265" style="fill:#193651;" width="12.347" height="12.347"/>
	<rect x="119.305" y="179.265" style="fill:#193651;" width="12.347" height="12.347"/>
	<rect x="150.788" y="179.265" style="fill:#193651;" width="12.347" height="12.347"/>
</g>
<path style="fill:#2EA2DB;" d="M176.776,55.014l-33.358,36.461l40.792,28.444c5.56-8.016,8.663-17.907,8.663-28.444
	C192.808,77.253,186.667,64.323,176.776,55.014z"/>
<path style="fill:#F16051;" d="M129.778,92.703l33.358-36.461c-8.663-8.016-20.428-12.994-33.358-12.994
	c-27.216,0-49.455,22.238-49.455,49.455s22.238,49.455,49.455,49.455c16.679,0,31.547-8.663,40.792-21.01L129.778,92.703z"/>
<polygon style="fill:#D3D7DA;" points="252.8,105.697 327.596,105.697 252.8,30.901 "/>
<polygon style="fill:#193651;" points="285.576,332.606 285.576,244.816 273.228,244.816 273.228,332.606 252.8,332.606 
	252.8,285.608 240.453,285.608 240.453,332.606 220.024,332.606 220.024,268.283 207.677,268.283 207.677,332.606 187.895,332.606 
	187.895,291.814 175.548,291.814 175.548,332.606 155.119,332.606 155.119,285.608 142.772,285.608 142.772,332.606 
	122.343,332.606 122.343,303.515 109.996,303.515 109.996,332.606 97.002,332.606 97.002,344.954 298.57,344.954 298.57,332.606 "/>
<g>
</g>
<g>
</g>
<g>
</g>
<g>
</g>
<g>
</g>
<g>
</g>
<g>
</g>
<g>
</g>
<g>
</g>
<g>
</g>
<g>
</g>
<g>
</g>
<g>
</g>
<g>
</g>
<g>
</g>
</svg>
